# xmcd
#
# Track frame offsets:
#	150
#	15442
#	32035
#	44966
#	60876
#	74851
#	90330
#	108418
#	125206
#	141075
#	160728
#	178549
#	191819
#	208254
#	229233
#
# Disc length: 3278 seconds
#
# Revision: 1
# Processed by: cddbd v1.5.1PL2 Copyright (c) Steve Scherf et al.
# Submitted via: audiograbber 1.83.01
#
DISCID=dc0ccc0f
DTITLE=Chart Buster Hot Country hits - Cb60104
DYEAR=1900
DGENRE=Karaoke
TTITLE0=George Strait - Gone As A Girl Can Get
TTITLE1=Lee Roy Parnell - What Kind Of Fool Do You Think I Am
TTITLE2=Trisha Yearwood - Wrong Side Of Memphis
TTITLE3=Mike Reid - I Got A Life
TTITLE4=Diamond Rio - In A Week Or Two
TTITLE5=Pam Tillis - Shake The Sugar Tree
TTITLE6=Ricky Van Shelton - Keep It Between The Lines
TTITLE7=Travis Tritt - Can I Trust You With My Heart
TTITLE8=Patty Loveless - Can't Stop Myself From Loving You
TTITLE9=Vince Gill - Pocket Full Of Gold
TTITLE10=Clint Black - Burn One Down
TTITLE11=Forester Sisters - What'll You Do About Me
TTITLE12=Billy Ray Cyrus - Where Am I Gonna Live
TTITLE13=Paul Overstreet - Heroes
TTITLE14=Michelle Wright - One Time Around
EXTD=
EXTT0=
EXTT1=
EXTT2=
EXTT3=
EXTT4=
EXTT5=
EXTT6=
EXTT7=
EXTT8=
EXTT9=
EXTT10=
EXTT11=
EXTT12=
EXTT13=
EXTT14=
PLAYORDER=
